PathFileType	4	(X/Y/Z)	./resultDataOpenSim/trcMotMarkerGrf/sub09/qtm-12-07.trc
DataRate	CameraRate	NumFrames	NumMarkers	Units	OrigDataRate	OrigDataStartFrame	OrigNumFrames
250.000000	250.000000	14	24	m	250.000000	60	473
Frame#	Time	L.Toe.Tip			R.Toe.Tip			L.Ankle.Lat			R.Ankle.Lat			L.Ankle.Med			R.Ankle.Med			L.Heel			R.Heel			L.Knee.Lat			R.Knee.Lat			L.Knee.Med			R.Knee.Med			L.Thigh.Upper			R.Thigh.Upper			L.ASIS			R.ASIS			V.Sacral			L.Acromium			R.Acromium			C7			L.Elbow			R.Elbow			L.Wrist.Lat			R.Wrist.Lat
		X1	Y1	Z1	X2	Y2	Z2	X3	Y3	Z3	X4	Y4	Z4	X5	Y5	Z5	X6	Y6	Z6	X7	Y7	Z7	X8	Y8	Z8	X9	Y9	Z9	X10	Y10	Z10	X11	Y11	Z11	X12	Y12	Z12	X13	Y13	Z13	X14	Y14	Z14	X15	Y15	Z15	X16	Y16	Z16	X17	Y17	Z17	X18	Y18	Z18	X19	Y19	Z19	X20	Y20	Z20	X21	Y21	Z21	X22	Y22	Z22	X23	Y23	Z23	X24	Y24	Z24

60	0.236	-1.4497291	0.079595502	-0.021466736	-0.66575502	0.040777256	0.10756367	-1.4677682	0.23499099	-0.068689698	-0.81207778	0.053590979	0.1426523	-1.4488672	0.22202998	0.026991584	-0.80661314	0.092039491	0.052159514	-1.5287505	0.28214166	-0.022403956	-0.8807395	0.030294583	0.094401319	-1.0969445	0.42051716	-0.09378272	-0.79095835	0.50735605	0.20083371	-1.0809094	0.40793887	0.030010878	-0.80375602	0.49390975	0.074009886	-1.0306513	0.82532133	-0.11188712	-1.0027438	0.85552104	0.25919896	-0.93692886	0.91150494	-0.059808602	-0.93014041	0.94128102	0.17949993	-1.1026457	0.97828797	0.059373546	-0.92478962	1.3809161	-0.086180478	-0.97738591	1.3796985	0.23897283	-1.0152286	1.4325206	0.073297987	-1.0342392	1.0247781	-0.17327553	-1.1270311	1.0485358	0.29342373	-0.82015197	0.86240549	-0.13959975	-1.0346241	0.79811671	0.3448886
61	0.24	-1.4383042	0.082890445	-0.023529788	-0.66568607	0.04065018	0.10726783	-1.455965	0.23876617	-0.068134149	-0.81198427	0.053597433	0.14263151	-1.437028	0.22465773	0.027516987	-0.80655935	0.092005675	0.051995826	-1.5161609	0.28598733	-0.021430365	-0.88076849	0.030287289	0.094482015	-1.0837956	0.42020811	-0.093297049	-0.78624269	0.50732626	0.20047498	-1.0674224	0.40783233	0.030509596	-0.80001318	0.49384128	0.073693797	-1.0241369	0.82571313	-0.1114265	-0.99447149	0.8565997	0.25980164	-0.93094877	0.91240132	-0.059588311	-0.9235022	0.94203263	0.17977354	-1.096263	0.97944898	0.05980776	-0.91875504	1.3817777	-0.08610085	-0.97024096	1.3806879	0.23922478	-1.0086982	1.4336237	0.07376028	-1.0286252	1.0257502	-0.17237052	-1.1192893	1.0492766	0.29458241	-0.8160342	0.86137927	-0.13983516	-1.0247683	0.79909275	0.3446775
62	0.244	-1.4262329	0.086026761	-0.025522008	-0.66558139	0.040541476	0.10701347	-1.443868	0.24228416	-0.06752711	-0.81183259	0.053628689	0.14262634	-1.4247826	0.22692454	0.028045291	-0.80645096	0.092008945	0.051799647	-1.5035662	0.28930271	-0.019920272	-0.8807707	0.03029034	0.094557353	-1.0704874	0.42024387	-0.092945416	-0.78158925	0.50737293	0.20005952	-1.0539868	0.40793029	0.031002943	-0.79650345	0.49381446	0.073436937	-1.0176737	0.82619019	-0.11106782	-0.9862772	0.85772308	0.26038432	-0.92495712	0.91336123	-0.059429136	-0.91687192	0.94285958	0.17996797	-1.089989	0.9806763	0.060207108	-0.91285777	1.3826758	-0.086097697	-0.96307254	1.3817266	0.23943135	-1.0021653	1.434811	0.074225836	-1.0231044	1.0267235	-0.17147718	-1.1112641	1.0501064	0.29635729	-0.81212821	0.86040888	-0.14015086	-1.0148214	0.80013993	0.34440052
63	0.248	-1.4136008	0.088975648	-0.027400511	-0.66544644	0.040443454	0.10679642	-1.4314688	0.24552338	-0.066884019	-0.81163238	0.05367772	0.1426221	-1.412105	0.22886944	0.028585019	-0.80624561	0.092035369	0.051600124	-1.4909397	0.29213438	-0.018228871	-0.88075193	0.030311788	0.094621203	-1.0570916	0.42054701	-0.092648947	-0.77705614	0.50742009	0.19962068	-1.0409885	0.4081883	0.031521655	-0.79320784	0.49378492	0.073263888	-1.0111626	0.82676137	-0.11079805	-0.97826866	0.85890122	0.2609211	-0.91892362	0.91440015	-0.059328665	-0.91022557	0.94377925	0.18008425	-1.0838006	0.98195755	0.060600451	-0.90709796	1.3836216	-0.086167362	-0.95586554	1.3828292	0.23958552	-0.99564115	1.4360819	0.074708902	-1.0176698	1.0277114	-0.17056137	-1.1029936	1.051028	0.29867598	-0.808376	0.85949883	-0.14053966	-1.0052033	0.80120555	0.34403664
64	0.252	-1.4004858	0.091710162	-0.029142961	-0.66530114	0.040356477	0.10659126	-1.4187657	0.24846802	-0.066214115	-0.81142649	0.05373459	0.14261192	-1.3988838	0.23058996	0.02909375	-0.80595198	0.09206855	0.05142936	-1.478229	0.2945397	-0.016610026	-0.88072789	0.030346899	0.094671859	-1.0436671	0.42105385	-0.092340419	-0.77272388	0.5073811	0.19921842	-1.0286345	0.40856079	0.032087005	-0.79006482	0.49372487	0.073154423	-1.0046385	0.82743627	-0.11058778	-0.97056897	0.86017417	0.26135847	-0.91283889	0.91552575	-0.059269968	-0.90355828	0.94480547	0.18012607	-1.0776733	0.98327807	0.061005975	-0.90139123	1.384629	-0.08628685	-0.94862195	1.3839969	0.23969299	-0.98913832	1.4374342	0.075223728	-1.0123022	1.0287414	-0.16962423	-1.0947475	1.0520239	0.30100731	-0.80468602	0.85866024	-0.140983	-0.9959495	0.80228264	0.34358839
65	0.256	-1.3869448	0.094207186	-0.030741906	-0.66516488	0.040282193	0.10638099	-1.4057737	0.25109353	-0.065527089	-0.8112613	0.053788875	0.14260112	-1.3850029	0.23219324	0.0294761	-0.80562259	0.092095511	0.051291954	-1.4653912	0.29656567	-0.015164424	-0.88071656	0.030383239	0.094709346	-1.0302757	0.42174726	-0.091992051	-0.76866034	0.50720349	0.19890498	-1.0164102	0.40900313	0.032687594	-0.78702929	0.4936201	0.073088214	-0.99824217	0.82823058	-0.110389	-0.96333536	0.86156867	0.26165096	-0.90673692	0.91673874	-0.059231084	-0.89686707	0.94594454	0.18009729	-1.07159	0.98464189	0.061420276	-0.8956789	1.3857101	-0.086433592	-0.94136337	1.3852219	0.23977041	-0.98266389	1.4388608	0.075769534	-1.0070167	1.0298459	-0.16873564	-1.0867813	1.0530712	0.30282758	-0.80101704	0.85790812	-0.14146694	-0.98686498	0.80340313	0.34307516
66	0.26	-1.3730095	0.096452839	-0.032197946	-0.66505133	0.040220465	0.10616802	-1.3925285	0.25337553	-0.064836246	-0.81116092	0.053837843	0.14259973	-1.3704966	0.23374097	0.029663028	-0.80530866	0.092109339	0.05117365	-1.4524204	0.29824221	-0.013880602	-0.88073236	0.030410562	0.094734326	-1.0169862	0.42262945	-0.091602638	-0.7648804	0.50690618	0.1986884	-1.003496	0.40949833	0.03332459	-0.78410751	0.49346735	0.073080584	-0.9920084	0.82917138	-0.11013357	-0.95658565	0.86307588	0.26181657	-0.90066681	0.91804326	-0.059200041	-0.89016017	0.94719591	0.18001187	-1.0655422	0.98608287	0.061822229	-0.88997085	1.3868727	-0.086596064	-0.93410362	1.3865032	0.23982861	-0.97621772	1.4403515	0.076329566	-1.0018735	1.0310513	-0.16801052	-1.0791136	1.0541643	0.30407478	-0.79738298	0.85725764	-0.14198885	-0.97778395	0.80460602	0.34251819
67	0.264	-1.3586923	0.098444027	-0.033508591	-0.66496973	0.040170694	0.10596566	-1.3790739	0.25530683	-0.064153099	-0.8111299	0.05388623	0.14261217	-1.3555235	0.23524284	0.029665924	-0.80503638	0.092109299	0.051063884	-1.4393336	0.29958227	-0.012688603	-0.88078324	0.030427534	0.094746356	-1.0038068	0.42369179	-0.091169242	-0.76133961	0.50656493	0.19853689	-0.98987723	0.41007995	0.034024997	-0.78130508	0.4932799	0.073139669	-0.9857914	0.83028431	-0.10977238	-0.95012772	0.86466222	0.26192749	-0.89464958	0.91944957	-0.059174316	-0.88346479	0.94855068	0.17989247	-1.0595218	0.98764032	0.062197907	-0.88429179	1.3881233	-0.086768771	-0.92683611	1.3878513	0.23986526	-0.96979595	1.4418975	0.076880371	-0.99692527	1.0323717	-0.16750385	-1.0716063	1.0553155	0.30501544	-0.79381522	0.85671921	-0.14255008	-0.96863914	0.805914	0.34193408
68	0.268	-1.3439998	0.10018811	-0.034654839	-0.66492447	0.040133771	0.10578364	-1.365445	0.25690094	-0.063483049	-0.81116511	0.053935445	0.14263607	-1.340336	0.23664743	0.029606946	-0.80481679	0.092100116	0.050963718	-1.4261394	0.30059005	-0.011531991	-0.88086927	0.030440151	0.094744375	-0.9906809	0.42491669	-0.090685116	-0.7579615	0.50624894	0.19841362	-0.97620274	0.41079783	0.034774841	-0.77859332	0.49308542	0.073245578	-0.97945065	0.8315623	-0.1093276	-0.94373705	0.86629811	0.26204665	-0.88868783	0.92096234	-0.059150272	-0.87681745	0.94999571	0.17976121	-1.0535139	0.98931683	0.062562595	-0.8786481	1.3894676	-0.086945761	-0.91956001	1.3892785	0.2398783	-0.96339776	1.4434905	0.077402009	-0.99212007	1.0338045	-0.16707634	-1.0641445	1.0565397	0.3058915	-0.79033663	0.85629499	-0.14314498	-0.95943409	0.80733251	0.34133477
69	0.272	-1.3289389	0.1017001	-0.035601646	-0.664916	0.040111525	0.10562316	-1.3516663	0.25817757	-0.062824179	-0.81126054	0.053979895	0.14266646	-1.3253777	0.23782185	0.029721634	-0.80465599	0.092088707	0.050883031	-1.4128248	0.30126936	-0.010423375	-0.88098207	0.030454811	0.094730336	-0.9775735	0.42629385	-0.090157173	-0.75467542	0.5059671	0.19829598	-0.96269124	0.41167869	0.035502834	-0.77594986	0.49290447	0.073403869	-0.97301499	0.8329583	-0.10889755	-0.93735144	0.86797173	0.26218669	-0.88279736	0.92257275	-0.059121554	-0.87024215	0.95151914	0.17963773	-1.0475052	0.99106314	0.062952101	-0.87304487	1.3909057	-0.087119082	-0.91230379	1.3907902	0.23987976	-0.95703006	1.4451229	0.07788395	-0.98726141	1.0353377	-0.16640385	-1.0566851	1.0578414	0.30679537	-0.7869596	0.85598173	-0.1437608	-0.95020656	0.80886251	0.34072805
70	0.276	-1.3135138	0.10299314	-0.036318536	-0.66494257	0.040103689	0.10548407	-1.3377555	0.25914732	-0.062179202	-0.8114047	0.054013476	0.1427	-1.3111415	0.23861466	0.030239206	-0.80455257	0.092081048	0.050834253	-1.3993822	0.30162083	-0.0094240262	-0.88110743	0.030474408	0.094710951	-0.9644917	0.42782159	-0.089601425	-0.75143972	0.50567446	0.19817024	-0.94914424	0.41274497	0.036168589	-0.77336841	0.49273847	0.07362069	-0.96660806	0.83442782	-0.10858158	-0.93102764	0.86967804	0.26233115	-0.87700625	0.92426784	-0.059084061	-0.86373667	0.95310416	0.17953596	-1.0414938	0.99281921	0.063387895	-0.86749311	1.3924293	-0.087281534	-0.90511166	1.3923836	0.23989062	-0.95070442	1.4467909	0.078327225	-0.98212432	1.0369834	-0.16517348	-1.049221	1.0592139	0.307723	-0.78369065	0.85577697	-0.1443853	-0.94099352	0.81050371	0.34012117
71	0.28	-1.2977267	0.1040683	-0.036800517	-0.66499823	0.040106701	0.10537172	-1.3237231	0.25981201	-0.061560554	-0.81157554	0.054033051	0.14273773	-1.2976136	0.23899462	0.031150072	-0.80449348	0.092081506	0.050826297	-1.3858344	0.30163412	-0.0085790072	-0.8812313	0.030499019	0.094692867	-0.95144013	0.42949313	-0.089023497	-0.74827026	0.50532569	0.19803228	-0.93558161	0.41402529	0.036808797	-0.77086062	0.49258175	0.07385777	-0.96029007	0.83596637	-0.10839753	-0.9247935	0.87140488	0.26247289	-0.87133495	0.92604191	-0.059032484	-0.85726625	0.95472264	0.17946523	-1.0354807	0.99457632	0.063851568	-0.86199822	1.3940266	-0.087430515	-0.89801495	1.3940509	0.23992439	-0.94442683	1.4484915	0.078744512	-0.97668692	1.0387916	-0.16332338	-1.0417536	1.0606443	0.3086469	-0.78053092	0.8556809	-0.14500878	-0.93181685	0.81225205	0.33952402
72	0.284	-1.2815956	0.10491891	-0.037060898	-0.66507174	0.040116535	0.10529569	-1.3095732	0.26016988	-0.060970883	-0.81174397	0.05403763	0.14278372	-1.2839422	0.23910733	0.032094208	-0.80445948	0.092094063	0.050863829	-1.3722199	0.30129311	-0.0078919026	-0.88134375	0.030527875	0.094676418	-0.93840034	0.4312955	-0.088411894	-0.7452757	0.50492465	0.19789809	-0.92219339	0.41553218	0.037470654	-0.76846538	0.49243264	0.07408234	-0.95403467	0.83759142	-0.1082954	-0.9186332	0.87312834	0.26261961	-0.86578177	0.92789241	-0.058957728	-0.85075065	0.95634465	0.17943885	-1.0294624	0.99637467	0.06429778	-0.8565588	1.3956881	-0.087565823	-0.89101399	1.3957842	0.23997778	-0.93818699	1.4502168	0.079159055	-0.97122077	1.0407895	-0.16117425	-1.0342914	1.0621231	0.30955612	-0.77747465	0.85569322	-0.14562305	-0.92268747	0.81410109	0.33894407
73	0.288	-1.2651762	0.10553384	-0.037094214	-0.66515184	0.040131532	0.10526332	-1.2952985	0.26021999	-0.060403889	-0.8118856	0.054030362	0.14283946	-1.2691491	0.23914139	0.032636546	-0.80443809	0.092123725	0.050948466	-1.3585666	0.30058905	-0.0073510741	-0.88143745	0.030561991	0.094657218	-0.92534527	0.43322998	-0.087758165	-0.74258242	0.50452543	0.19778079	-0.90905996	0.41727791	0.038126954	-0.76614459	0.49229226	0.074243875	-0.94780205	0.83930813	-0.10821528	-0.91257271	0.87481933	0.26277557	-0.86030474	0.9298111	-0.058854413	-0.84408489	0.95795296	0.1794692	-1.0234454	0.99823179	0.064696047	-0.85117173	1.3974081	-0.087685977	-0.88407898	1.3975769	0.24003607	-0.93196185	1.4519599	0.079591618	-0.96604136	1.042917	-0.15925886	-1.026846	1.0636514	0.310458	-0.77450941	0.85581193	-0.14622221	-0.91360233	0.81604188	0.33838114
